<?xml version="1.0" encoding="UTF-8" standalone="no"?>
<svg
   xmlns:dc="http://purl.org/dc/elements/1.1/"
   xmlns:cc="http://creativecommons.org/ns#"
   xmlns:rdf="http://www.w3.org/1999/02/22-rdf-syntax-ns#"
   xmlns:svg="http://www.w3.org/2000/svg"
   xmlns="http://www.w3.org/2000/svg"
   width="50"
   height="50"
   viewBox="0 0 50 50"
   version="1.1"
   id="svg8">
  <defs
     id="defs2" />
  <metadata
     id="metadata5">
    <rdf:RDF>
      <cc:Work
         rdf:about="">
        <dc:format>image/svg+xml</dc:format>
        <dc:type
           rdf:resource="http://purl.org/dc/dcmitype/StillImage" />
        <dc:title></dc:title>
      </cc:Work>
    </rdf:RDF>
  </metadata>
  <g
     id="layer1"
     transform="matrix(3.8394937,0,0,3.8394937,-0.39665081,-1089.9329)">
    <path
       style="fill:#ffffff;stroke-width:0.02979593"
       d="m 5.8631861,296.88677 c -1.5243235,-0.1803 -2.9961843,-0.92406 -4.0186167,-2.03069 -0.9494594,-1.02764 -1.49402649,-2.18129 -1.70082755,-3.60313 -0.0400204,-0.27514 -0.040436,-1.40768 -6.562e-4,-1.68693 0.10015124,-0.7024 0.18502048,-1.03159 0.41645536,-1.61531 0.50905209,-1.28392 1.50309469,-2.4424 2.72071029,-3.17081 0.4615619,-0.27612 1.2284259,-0.59358 1.6592231,-0.68687 0.090133,-0.0195 0.2108065,-0.0471 0.2681635,-0.0612 1.4640853,-0.36185 3.2673414,-0.0898 4.643921,0.70048 0.6160161,0.35367 1.2595491,0.87715 1.6292631,1.32531 0.0977,0.11843 0.228824,0.2764 0.291387,0.35105 0.542029,0.64669 1.07763,1.81756 1.23727,2.70478 0.01769,0.0983 0.04892,0.27263 0.06941,0.38734 0.04976,0.27865 0.0488,1.506 -0.0014,1.80267 -0.05716,0.3377 -0.117088,0.62233 -0.169379,0.80448 -0.02587,0.0901 -0.05818,0.2041 -0.07178,0.25326 -0.109022,0.39402 -0.403044,1.0375 -0.675967,1.47939 -0.798268,1.29249 -2.123469,2.32764 -3.5410856,2.76602 -0.2507605,0.0775 -0.551518,0.1544 -0.938572,0.23984 -0.1588659,0.0351 -1.5931381,0.0669 -1.8175516,0.0404 z m 1.7281642,-0.32399 c 0.1219778,-0.0128 0.3842773,-0.0805 0.7597965,-0.19584 0.4341138,-0.13342 0.605327,-0.20056 0.9832658,-0.38557 1.5134534,-0.74088 2.6652374,-2.06764 3.1980984,-3.68392 0.205234,-0.62251 0.2864,-1.1627 0.285919,-1.90284 -6.56e-4,-0.98825 -0.159349,-1.72668 -0.552599,-2.57119 -0.146889,-0.31544 -0.399868,-0.77297 -0.532349,-0.96279 -0.408796,-0.58571 -1.063211,-1.22434 -1.66805,-1.62781 -1.3129548,-0.87586 -2.9082178,-1.23332 -4.4108175,-0.9884 -1.1265353,0.18363 -2.2132155,0.69479 -3.1308073,1.47267 -0.1640245,0.13905 -0.3110714,0.25281 -0.3267711,0.25281 -0.015698,0 -0.028543,0.0144 -0.028543,0.0318 0,0.0504 -0.240496,0.32231 -0.3025221,0.34199 -0.030823,0.01 -0.075736,0.065 -0.099807,0.12254 -0.02407,0.0576 -0.087532,0.15983 -0.1410245,0.22716 -0.4235068,0.53305 -0.83901847,1.39414 -1.03109979,2.13683 -0.17099066,0.66113 -0.2254507,1.12039 -0.20492935,1.72816 0.0183996,0.54487 0.0490045,0.77284 0.16952693,1.26276 0.12757915,0.51862 0.18881626,0.69311 0.41428562,1.1805 0.42262929,0.91359 1.04973139,1.69953 1.85107969,2.31994 0.1392966,0.10784 0.2639881,0.21323 0.2770933,0.2342 0.013107,0.021 0.037275,0.0381 0.053712,0.0381 0.016436,0 0.1666125,0.0787 0.3337236,0.17493 0.5365696,0.30892 0.6962087,0.37989 1.2871045,0.57222 0.3666601,0.11935 0.7534471,0.20108 1.1769392,0.24869 0.1146666,0.0129 1.4719429,-0.01 1.6387768,-0.0271 z M 6.027064,295.85863 c -0.8788222,-0.10832 -1.5569389,-0.3338 -2.2583811,-0.75091 -0.4815644,-0.28637 -1.0022741,-0.7332 -1.3735786,-1.1787 C 2.1345474,293.6164 1.8168762,293.13411 1.775612,292.9885 1.756775,292.9221 1.712163,292.82744 1.676466,292.77828 1.584704,292.6519 1.5299369,292.52569 1.4091506,292.16224 1.2956811,291.82082 1.2748317,291.73418 1.184542,291.2289 c -0.080451,-0.45024 -0.080145,-1.18033 7.109e-4,-1.65368 0.085975,-0.50342 0.1040514,-0.57939 0.2234204,-0.93892 0.5878878,-1.77072 2.0537125,-3.12171 3.8735082,-3.57006 0.3607771,-0.0888 0.4848595,-0.10813 0.8789802,-0.13644 0.4828915,-0.0347 0.4302107,-0.0347 0.9087758,9.8e-4 0.7496693,0.0562 1.3540443,0.22541 2.0261233,0.56732 0.5833035,0.29673 1.0531752,0.64345 1.4787192,1.09113 0.717005,0.75433 1.122955,1.5084 1.394854,2.59105 0.111258,0.44301 0.148426,1.62511 0.06582,2.09316 -0.167192,0.94726 -0.513863,1.7519 -1.07192,2.48797 -0.339092,0.44725 -0.937233,0.98892 -1.4284762,1.2936 -0.3928888,0.24367 -0.9919653,0.5195 -1.303071,0.59995 -0.049163,0.0127 -0.1631332,0.0424 -0.2532659,0.0661 -0.5664522,0.14862 -1.3902248,0.20662 -1.9516333,0.13742 z m 1.0865031,-1.93125 c 0.020215,-0.0378 0.030845,-0.63823 0.030845,-1.74306 v -1.68543 l 0.4394903,-3.5e-4 c 0.2417192,-2.5e-4 0.4578137,-0.0121 0.4802106,-0.0262 0.02606,-0.0165 0.050399,-0.12628 0.067604,-0.30495 0.014786,-0.15354 0.038818,-0.39312 0.053406,-0.53242 0.017399,-0.16613 0.016146,-0.26584 -0.00361,-0.28981 -0.021073,-0.0255 -0.1794233,-0.039 -0.5261678,-0.0447 l -0.4960196,-0.008 -0.00827,-0.44414 c -0.011204,-0.6016 -0.027553,-0.58382 0.536854,-0.58382 0.2283367,0 0.4397468,-0.0138 0.4715404,-0.0308 0.053936,-0.0289 0.057633,-0.0679 0.057633,-0.60763 0,-0.49847 -0.0064,-0.57924 -0.047129,-0.59487 -0.070486,-0.027 -0.8825563,-0.0202 -1.1894003,0.01 -0.6483889,0.0638 -1.0616466,0.37025 -1.1978488,0.88822 -0.028494,0.10836 -0.052094,0.39036 -0.064216,0.76725 l -0.01916,0.59592 -0.3111365,0.009 c -0.1711245,0.005 -0.3286705,0.0231 -0.3501018,0.0409 -0.053346,0.0443 -0.056278,1.06846 -0.00322,1.12153 0.023397,0.0234 0.1469927,0.0358 0.3575508,0.0358 h 0.3217962 v 1.68543 c 0,1.10483 0.010624,1.70529 0.030845,1.74307 0.029057,0.0543 0.068742,0.0577 0.6842584,0.0577 0.615516,0 0.6552027,-0.003 0.684258,-0.0577 z"
       id="path422561" />
  </g>
</svg>
