<?xml version="1.0" encoding="UTF-8" standalone="no"?>
<svg
   xmlns:dc="http://purl.org/dc/elements/1.1/"
   xmlns:cc="http://creativecommons.org/ns#"
   xmlns:rdf="http://www.w3.org/1999/02/22-rdf-syntax-ns#"
   xmlns:svg="http://www.w3.org/2000/svg"
   xmlns="http://www.w3.org/2000/svg"
   width="50"
   height="50"
   viewBox="0 0 50 50"
   version="1.1"
   id="svg8">
  <defs
     id="defs2" />
  <metadata
     id="metadata5">
    <rdf:RDF>
      <cc:Work
         rdf:about="">
        <dc:format>image/svg+xml</dc:format>
        <dc:type
           rdf:resource="http://purl.org/dc/dcmitype/StillImage" />
        <dc:title></dc:title>
      </cc:Work>
    </rdf:RDF>
  </metadata>
  <g
     id="layer1"
     transform="matrix(3.839796,0,0,3.839796,-0.39865055,-1090.0207)">
    <path
       style="fill:#ffffff;stroke-width:0.02979593"
       d="m 5.8785509,296.88728 c -0.211715,-0.0206 -0.803483,-0.13651 -0.968365,-0.18951 -0.04096,-0.0132 -0.134824,-0.0409 -0.208571,-0.0615 -0.670059,-0.18763 -1.585307,-0.66558 -2.130412,-1.11254 -1.091137,-0.89468 -1.86562902,-2.04226 -2.21469002,-3.28153 -0.26138,-0.92798 -0.323059,-2.11528 -0.155564,-2.99449 0.10959,-0.57524 0.193698,-0.86439 0.394346,-1.35572 0.33941,-0.8311 0.81236302,-1.52045 1.50336502,-2.19123 0.476716,-0.46277 1.090099,-0.9027 1.574995,-1.12964 0.445198,-0.20834 0.594698,-0.27137 0.83647,-0.35262 1.436737,-0.48284 3.017113,-0.45635 4.422513,0.0741 0.676991,0.25554 1.4093851,0.6929 1.9760331,1.18003 0.324826,0.27924 0.683083,0.66528 0.765864,0.82524 0.02964,0.0574 0.08252,0.12155 0.11743,0.14266 0.09438,0.0571 0.477208,0.65604 0.681432,1.0662 0.253901,0.50991 0.453767,1.12537 0.589548,1.81543 0.07648,0.38868 0.07861,1.72387 0.0032,2.13212 -0.07337,0.39824 -0.185934,0.84164 -0.242381,0.95479 -0.02619,0.0526 -0.04763,0.11843 -0.04763,0.14643 0,0.13252 -0.381792,0.93221 -0.635342,1.33078 -0.363781,0.57185 -0.932337,1.20758 -1.450369,1.62175 -0.571246,0.45671 -1.3263441,0.85966 -2.0559211,1.09711 -0.319932,0.10413 -0.401411,0.12485 -0.95347,0.24254 -0.157658,0.0336 -1.550712,0.0642 -1.802655,0.0395 z m 1.78776,-0.3523 c 0.912033,-0.1818 1.441122,-0.38323 2.190592,-0.83398 0.7714901,-0.46399 1.5863791,-1.27478 2.0538161,-2.04348 0.352986,-0.58049 0.695485,-1.4336 0.80146,-1.99632 0.01695,-0.0901 0.04467,-0.23763 0.06155,-0.32777 0.03976,-0.21233 0.101048,-1.24242 0.0763,-1.28245 -0.01045,-0.0169 -0.03084,-0.14754 -0.04544,-0.29035 -0.02816,-0.27653 -0.06961,-0.54195 -0.114959,-0.73638 -0.07533,-0.323 -0.152727,-0.59761 -0.19208,-0.68156 -0.02401,-0.0512 -0.0912,-0.21159 -0.149303,-0.35637 -0.05809,-0.14477 -0.180543,-0.39734 -0.272087,-0.56124 -0.09155,-0.1639 -0.174451,-0.33798 -0.184222,-0.38685 -0.0098,-0.0488 -0.05058,-0.11032 -0.09067,-0.1366 -0.04008,-0.0262 -0.155133,-0.15609 -0.255646,-0.28848 -0.815452,-1.07411 -2.0285921,-1.879 -3.3613101,-2.23016 -1.266677,-0.33375 -2.347086,-0.28598 -3.676383,0.16254 -0.295113,0.0996 -0.904236,0.40491 -1.221631,0.61237 -0.423321,0.2767 -0.611328,0.42683 -0.977852,0.78083 -0.936235,0.90423 -1.54258102,2.02025 -1.80830802,3.32832 -0.04577,0.22521 -0.118836,0.92801 -0.118831,1.14271 2.1e-5,0.85158 0.252704,1.89092 0.65918802,2.71143 0.321928,0.64981 0.608265,1.05537 1.11214,1.57515 0.567272,0.58517 0.984578,0.89362 1.699786,1.25636 0.659254,0.33437 1.444605,0.57407 2.08571,0.6366 0.299149,0.0292 1.498421,-0.009 1.72817,-0.0543 z M 6.0126369,295.857 c -0.377871,-0.0449 -0.764376,-0.12552 -1.057762,-0.22054 -0.598515,-0.19387 -1.196068,-0.50481 -1.679208,-0.87383 -0.285506,-0.21806 -0.888522,-0.82086 -0.987526,-0.98716 -0.04095,-0.0688 -0.116177,-0.1738 -0.167139,-0.23327 -0.251598,-0.29368 -0.61242,-1.04608 -0.7806,-1.62774 -0.120246,-0.41588 -0.214301,-1.02406 -0.214301,-1.38574 0.0017,-0.44929 -0.02007,-0.21282 0.04095,-0.76099 0.03932,-0.33009 0.08472,-0.54596 0.225467,-1.07123 0.01318,-0.0491 0.06693,-0.19665 0.119459,-0.32776 0.503247,-1.25593 1.442533,-2.27881 2.638389,-2.87321 0.435181,-0.2163 0.596541,-0.27812 1.04286,-0.39949 0.451717,-0.12285 0.581023,-0.12984 0.581023,-0.0314 0,0.0606 0.03123,0.0513 0.123304,-0.0369 0.116085,-0.11122 0.50423,-0.14562 1.124694,-0.0997 1.353115,0.10018 2.484831,0.60847 3.4395151,1.54481 1.342288,1.31649 1.889748,3.10174 1.540808,5.02454 -0.117763,0.64893 -0.422626,1.3747 -0.840003,1.99975 -0.267795,0.40104 -0.89814,1.05706 -1.2706201,1.32239 -0.587426,0.41842 -1.207551,0.71918 -1.808516,0.87709 -0.6657,0.17493 -1.442768,0.23514 -2.070816,0.16046 z m -0.19367,-3.19858 c 0.40013,-0.0423 0.868792,-0.26024 1.189418,-0.55326 0.289678,-0.26475 0.55171,-0.70902 0.659768,-1.11861 0.08952,-0.33933 0.10802,-0.89122 0.03155,-0.94133 -0.01838,-0.012 -0.518485,-0.0221 -1.111368,-0.0224 -0.940654,-3.6e-4 -1.083937,0.006 -1.124799,0.0464 -0.03511,0.0351 -0.0468,0.10918 -0.0468,0.29583 0,0.18663 0.0117,0.26072 0.0468,0.29582 0.04002,0.04 0.152726,0.0468 0.774694,0.0468 h 0.727877 v 0.0946 c 0,0.0521 -0.0543,0.20681 -0.120624,0.34386 -0.145935,0.30151 -0.409344,0.58464 -0.65459,0.70359 -0.185878,0.0901 -0.514751,0.16764 -0.714584,0.16836 -0.136486,3.5e-4 -0.469383,-0.0584 -0.652342,-0.11527 -0.329463,-0.10251 -0.803795,-0.5175 -0.962088,-0.84171 -0.156363,-0.32026 -0.203201,-0.51903 -0.202059,-0.85749 5.47e-4,-0.17346 0.02017,-0.39538 0.04353,-0.49315 0.133807,-0.56043 0.618205,-1.0709 1.207622,-1.2726 0.162826,-0.0557 0.253332,-0.0655 0.580263,-0.0632 0.452049,0.003 0.639645,0.058 1.000369,0.29129 0.125414,0.0812 0.231942,0.13033 0.261217,0.12065 0.02723,-0.009 0.13659,-0.0955 0.243112,-0.19233 0.223149,-0.20278 0.222673,-0.21347 -0.01761,-0.39694 -0.271656,-0.20742 -0.668823,-0.39003 -1.025249,-0.47138 -0.223143,-0.0509 -0.808066,-0.0445 -1.01306,0.0112 -0.640871,0.17398 -1.113409,0.4812 -1.462606,0.9509 -0.694834,0.93459 -0.67183,2.16148 0.05749,3.06627 0.29998,0.37216 0.694446,0.64674 1.153282,0.8028 0.250411,0.0852 0.660304,0.14807 0.847746,0.13008 0.05736,-0.006 0.184736,-0.0186 0.283061,-0.0289 z m 4.3055121,-1.47396 c 0.0082,-0.23762 0.02575,-0.44881 0.03899,-0.46929 0.01755,-0.0271 0.145744,-0.0372 0.468717,-0.0372 0.51678,0 0.484787,0.0244 0.469542,-0.3579 l -0.0089,-0.22311 -0.455549,-0.0148 c -0.360843,-0.0118 -0.461411,-0.0242 -0.483731,-0.0596 -0.01548,-0.0246 -0.02838,-0.23432 -0.02865,-0.4661 -3.51e-4,-0.35649 -0.0077,-0.42419 -0.04757,-0.43948 -0.08589,-0.0329 -0.4758301,-0.0196 -0.5130281,0.0177 -0.02444,0.0245 -0.03576,0.16977 -0.03576,0.46008 0,0.30673 -0.01034,0.431 -0.03724,0.44843 -0.02051,0.0133 -0.231661,0.0308 -0.469285,0.039 l -0.432041,0.0148 v 0.28306 0.28306 l 0.461836,0.0148 0.461838,0.0148 0.0084,0.43001 c 0.0049,0.26243 0.02138,0.44575 0.04178,0.47038 0.02456,0.0296 0.102054,0.038 0.289661,0.0318 l 0.2561591,-0.009 z m 2.622039,1.19359 c 0,-0.0154 -0.01339,-0.0363 -0.0298,-0.0464 -0.0164,-0.0101 -0.0298,0.002 -0.0298,0.028 0,0.0255 0.01339,0.0465 0.0298,0.0465 0.0164,0 0.0298,-0.0126 0.0298,-0.028 z"
       id="path422561" />
  </g>
</svg>
