<?xml version="1.0" encoding="UTF-8" standalone="no"?>
<svg
   xmlns:dc="http://purl.org/dc/elements/1.1/"
   xmlns:cc="http://creativecommons.org/ns#"
   xmlns:rdf="http://www.w3.org/1999/02/22-rdf-syntax-ns#"
   xmlns:svg="http://www.w3.org/2000/svg"
   xmlns="http://www.w3.org/2000/svg"
   id="svg8"
   version="1.1"
   viewBox="0 0 50 50"
   height="50"
   width="50">
  <defs
     id="defs2" />
  <metadata
     id="metadata5">
    <rdf:RDF>
      <cc:Work
         rdf:about="">
        <dc:format>image/svg+xml</dc:format>
        <dc:type
           rdf:resource="http://purl.org/dc/dcmitype/StillImage" />
        <dc:title></dc:title>
        <cc:license
           rdf:resource="" />
      </cc:Work>
    </rdf:RDF>
  </metadata>
  <g
     transform="matrix(0.44452551,0,0,0.44452551,57.972718,-60.128738)"
     id="g4825">
    <path
       id="path4771"
       d="m -74.175089,143.90512 a 47.599777,47.599777 0 0 0 -47.599601,47.59961 47.599777,47.599777 0 0 0 47.599601,47.59961 47.599777,47.599777 0 0 0 47.59961,-47.59961 47.599777,47.599777 0 0 0 -47.59961,-47.59961 z m -12.0625,26.73438 c 5.379314,0 10.268359,1.9557 14.017578,5.3789 -4.238247,4.07524 -4.074082,4.23813 -5.867187,6.03125 -2.119124,-1.79312 -4.564182,-3.09765 -8.150391,-3.09765 -6.846399,0 -12.226562,5.54227 -12.226562,12.38867 0,6.8464 5.380163,12.38867 12.226562,12.38867 6.68339,0 9.454943,-2.9332 11.248047,-8.3125 h -11.248047 v -8.15039 h 20.048828 c 1.467086,10.10659 -2.76982,25.10352 -20.048828,25.10352 -11.573675,0 -20.865231,-9.29157 -20.865231,-20.86524 0,-11.57368 9.291556,-20.86523 20.865231,-20.86523 z m 32.601563,9.61719 h 5.052734 v 7.33593 h 7.335938 v 5.05274 h -7.335938 v 7.49804 h -5.052734 v -7.49804 h -7.498047 v -5.05274 h 7.498047 z"
       style="opacity:1;fill:#ffffff;fill-opacity:1;stroke:none;stroke-width:4.80044556;stroke-linejoin:round;stroke-miterlimit:4;stroke-dasharray:none;stroke-dashoffset:0;stroke-opacity:1" />
    <circle
       style="opacity:1;fill:none;fill-opacity:1;stroke:#ffffff;stroke-width:3;stroke-linejoin:round;stroke-miterlimit:4;stroke-dasharray:none;stroke-dashoffset:0;stroke-opacity:1"
       id="circle4773"
       cx="-74.175087"
       cy="191.50473"
       r="54.739742" />
  </g>
</svg>
