<?xml version="1.0" encoding="UTF-8" standalone="no"?>
<svg
   xmlns:dc="http://purl.org/dc/elements/1.1/"
   xmlns:cc="http://creativecommons.org/ns#"
   xmlns:rdf="http://www.w3.org/1999/02/22-rdf-syntax-ns#"
   xmlns:svg="http://www.w3.org/2000/svg"
   xmlns="http://www.w3.org/2000/svg"
   width="50"
   height="50"
   viewBox="0 0 50 50"
   version="1.1"
   id="svg8">
  <defs
     id="defs2" />
  <metadata
     id="metadata5">
    <rdf:RDF>
      <cc:Work
         rdf:about="">
        <dc:format>image/svg+xml</dc:format>
        <dc:type
           rdf:resource="http://purl.org/dc/dcmitype/StillImage" />
        <dc:title></dc:title>
      </cc:Work>
    </rdf:RDF>
  </metadata>
  <g
     id="layer1"
     transform="matrix(3.8352898,0,0,3.8352898,-0.36884291,-1088.7122)">
    <path
       style="fill:#ffffff;stroke-width:0.02979593"
       d="m 5.8857194,296.88474 c -0.425011,-0.0562 -0.996224,-0.18353 -1.370612,-0.3056 -1.190229,-0.38809 -2.365077,-1.24323 -3.137753,-2.2839 -0.58786401,-0.79175 -1.04649101,-1.83828 -1.16881601,-2.66708 -0.01575,-0.10651 -0.04139,-0.26071 -0.05705,-0.34265 -0.01563,-0.082 -0.03784,-0.37105 -0.04927,-0.64246 -0.05102,-1.21117 0.221278,-2.37455 0.798003,-3.40979 0.16729901,-0.30029 0.46419001,-0.74802 0.59273701,-0.89387 0.02887,-0.0327 0.145279,-0.16686 0.258646,-0.29796 0.284883,-0.32943 0.533409,-0.55123 0.61767,-0.55123 0.04987,0 0.07776,-0.0247 0.09994,-0.0882 0.05626,-0.16136 0.761806,-0.63191 1.384622,-0.92344 1.559657,-0.73004 3.439558,-0.80026 5.056153,-0.18886 1.1937716,0.4515 2.1912316,1.20538 2.9485656,2.22854 0.422675,0.57103 0.790863,1.29603 0.968447,1.90694 0.02859,0.0983 0.06287,0.2123 0.07619,0.25327 0.01328,0.041 0.03177,0.11471 0.04101,0.16387 0.0092,0.0491 0.04326,0.21253 0.07564,0.36304 0.254452,1.18263 0.07169,2.70087 -0.467038,3.87982 -0.767974,1.68065 -2.170344,2.94407 -3.8823836,3.49771 -0.333044,0.1077 -0.446433,0.13698 -1.011846,0.26138 -0.156368,0.0345 -1.574005,0.0668 -1.772859,0.0405 z m 1.862245,-0.36655 c 0.291963,-0.059 0.388867,-0.0828 0.655513,-0.16149 0.160617,-0.0474 0.831261,-0.31671 0.998161,-0.40087 0.9883496,-0.49841 1.9292596,-1.37013 2.5178506,-2.3327 0.339786,-0.5557 0.676128,-1.38531 0.772556,-1.90558 0.01974,-0.10651 0.04741,-0.2473 0.06141,-0.31286 0.01405,-0.0655 0.04227,-0.32267 0.0627,-0.57137 0.02936,-0.3574 0.02958,-0.53864 0.0011,-0.86455 -0.0837,-0.9554 -0.26715,-1.61109 -0.669457,-2.39286 -0.626381,-1.21716 -1.573792,-2.1488 -2.8023406,-2.75567 -0.411253,-0.20315 -0.991034,-0.41924 -1.32929,-0.49544 -1.207278,-0.27196 -2.387729,-0.19358 -3.575508,0.23739 -0.710998,0.25798 -1.493943,0.74865 -2.100617,1.31642 -0.114714,0.10737 -0.245447,0.21839 -0.290509,0.24673 -0.04505,0.0283 -0.08194,0.076 -0.08194,0.10583 0,0.0299 -0.02887,0.0798 -0.06416,0.11105 -0.08605,0.0761 -0.433977,0.54622 -0.582286,0.78676 -0.44784501,0.72634 -0.73221301,1.49345 -0.87810001,2.36877 -0.0246,0.1475 -0.03976,0.48542 -0.03976,0.88643 0.0038,0.41176 -0.02674,0.34057 0.05644,0.98379 0.05641,0.45605 0.326346,1.28445 0.58400301,1.79225 0.346687,0.68326 0.700187,1.16217 1.255867,1.70144 0.504865,0.48996 0.931992,0.79233 1.574918,1.11492 0.656225,0.32927 1.230381,0.49848 2.070816,0.61027 0.04916,0.007 0.404478,0.008 0.78959,0.003 0.570223,-0.007 0.758284,-0.0203 1.013065,-0.0718 z m -1.713264,-0.66253 c -0.931489,-0.11482 -1.612002,-0.34829 -2.350848,-0.80654 -0.674663,-0.41844 -1.356194,-1.10922 -1.772992,-1.79708 -0.217566,-0.35905 -0.453805,-0.88106 -0.539374,-1.19184 -0.01356,-0.0491 -0.05085,-0.18324 -0.08295,-0.29796 -0.115697,-0.41357 -0.14039,-0.66115 -0.139663,-1.40041 3.5e-4,-0.46473 0.01405,-0.77768 0.03876,-0.89387 0.204772,-0.96128 0.468443,-1.59076 0.958206,-2.28756 0.383913,-0.54621 1.148852,-1.2349 1.719607,-1.5482 0.414299,-0.22741 0.506117,-0.27181 0.739027,-0.35741 0.614799,-0.22592 1.007756,-0.30967 1.642771,-0.35011 1.03269,-0.0657 1.9004,0.10799 2.831095,0.56694 0.532402,0.26255 0.913817,0.5363 1.3613116,0.97707 0.474217,0.46708 0.895149,1.02389 0.953579,1.26136 0.01077,0.0438 0.05129,0.11755 0.09005,0.16387 0.08404,0.1005 0.216866,0.40117 0.339939,0.76954 0.136974,0.40999 0.199227,0.70774 0.244775,1.17067 0.238448,2.42382 -1.069605,4.64887 -3.3023156,5.61738 -0.475437,0.24357 -0.925726,0.30614 -1.006499,0.32087 -0.628076,0.10935 -1.263823,0.14005 -1.724501,0.0832 z m 2.011225,-2.21489 c 0.388452,-0.0471 0.706515,-0.14509 0.9249,-0.28523 0.171701,-0.11018 0.455265,-0.41091 0.536585,-0.56909 0.03057,-0.0595 0.104511,-0.13692 0.164363,-0.17223 0.09982,-0.0589 0.107036,-0.0721 0.08734,-0.16012 -0.01181,-0.0528 -0.01663,-0.26353 -0.01072,-0.46838 0.0059,-0.20485 0.0097,-0.9557 0.0084,-1.66858 -0.0028,-1.56196 -0.02887,-1.74775 -0.302419,-2.16628 -0.233942,-0.35796 -0.605295,-0.60908 -1.070151,-0.72367 -0.226944,-0.0559 -0.341099,-0.0598 -1.748565,-0.0598 -1.598578,0 -1.715791,0.009 -2.078647,0.14906 -0.32984,0.12785 -0.680573,0.43092 -0.837877,0.72402 -0.227157,0.42324 -0.259861,0.70917 -0.259702,2.2704 3.01e-4,1.56632 0.03034,1.83697 0.250298,2.2409 0.130702,0.24007 0.389632,0.51492 0.596875,0.63356 0.210283,0.12039 0.51941,0.21347 0.849179,0.25568 0.41519,0.0532 2.450415,0.0531 2.890205,-2e-4 z m -2.99449,-0.58288 c -0.232051,-0.0389 -0.334411,-0.0776 -0.506085,-0.19159 -0.303156,-0.20122 -0.434968,-0.45637 -0.4898,-0.94811 -0.04074,-0.36522 -0.04057,-2.48488 3.01e-4,-2.83758 0.07816,-0.67591 0.345101,-0.97989 0.980749,-1.1168 0.07398,-0.0159 0.684587,-0.0292 1.362006,-0.0296 1.253389,-0.009 1.679434,0.006 1.841072,0.04 0.533168,0.11529 0.827756,0.42706 0.924851,0.97877 0.06384,0.36278 0.06256,2.7369 -0.0017,3.10528 -0.08845,0.50718 -0.315137,0.79376 -0.751712,0.9503 -0.163733,0.0588 -0.239979,0.0618 -1.691058,0.0679 -0.835777,0.003 -1.586631,-0.005 -1.668575,-0.0186 z m 1.936736,-0.97351 c 0.48156,-0.11892 0.938777,-0.50609 1.105659,-0.93627 0.0426,-0.0726 0.07071,-0.12957 0.08697,-0.17546 0.01865,-0.0546 0.03422,-0.16649 0.02958,-0.44693 -0.0077,-0.46256 -0.03904,-0.57137 -0.26954,-0.93523 -0.152442,-0.24064 -0.372709,-0.41891 -0.70256,-0.56859 -0.726395,-0.32964 -1.640988,-0.0114 -2.039042,0.70952 -0.133632,0.24201 -0.1925,0.48598 -0.1925,0.79781 0,0.16041 0.01224,0.32244 0.02718,0.36009 0.01493,0.0376 0.0575,0.14888 0.09457,0.24722 0.08225,0.21816 0.307263,0.51111 0.502897,0.65472 0.15902,0.11673 0.467081,0.26477 0.618993,0.29746 0.05309,0.0114 0.103647,0.0323 0.112395,0.0465 0.02149,0.0348 0.404839,0.004 0.625402,-0.0508 z m -0.663296,-0.55987 c -0.06983,-0.023 -0.147881,-0.0627 -0.173455,-0.0882 -0.02554,-0.0255 -0.0704,-0.0465 -0.09963,-0.0465 -0.02925,0 -0.120034,-0.0708 -0.201791,-0.15718 -0.387014,-0.40922 -0.386768,-1.01781 5.46e-4,-1.44171 0.221493,-0.2424 0.39935,-0.31643 0.765142,-0.31845 0.247367,-0.002 0.303774,0.009 0.447314,0.0777 0.217511,0.10499 0.399492,0.29018 0.507474,0.51644 0.07638,0.16004 0.08807,0.21848 0.08807,0.44015 0,0.3122 -0.07632,0.50993 -0.281487,0.72928 -0.254224,0.27178 -0.716979,0.39864 -1.052217,0.28845 z m 2.232111,-2.44957 c 0.157532,-0.15754 0.132561,-0.44408 -0.0491,-0.56309 -0.100769,-0.066 -0.306912,-0.0669 -0.406348,-0.002 -0.195809,0.12829 -0.23105,0.46161 -0.06137,0.58038 0.119519,0.0836 0.1571,0.0939 0.299876,0.082 0.09504,-0.008 0.153688,-0.0343 0.216925,-0.0976 z"
       id="path422561" />
  </g>
</svg>
