<?xml version="1.0" encoding="UTF-8" standalone="no"?>
<svg
   xmlns:dc="http://purl.org/dc/elements/1.1/"
   xmlns:cc="http://creativecommons.org/ns#"
   xmlns:rdf="http://www.w3.org/1999/02/22-rdf-syntax-ns#"
   xmlns:svg="http://www.w3.org/2000/svg"
   xmlns="http://www.w3.org/2000/svg"
   width="50"
   height="50"
   viewBox="0 0 50 50"
   version="1.1"
   id="svg8">
  <defs
     id="defs2" />
  <metadata
     id="metadata5">
    <rdf:RDF>
      <cc:Work
         rdf:about="">
        <dc:format>image/svg+xml</dc:format>
        <dc:type
           rdf:resource="http://purl.org/dc/dcmitype/StillImage" />
        <dc:title></dc:title>
      </cc:Work>
    </rdf:RDF>
  </metadata>
  <g
     id="layer1"
     transform="matrix(3.8336418,0,0,3.8336418,-0.35794205,-1088.2336)">
    <path
       style="fill:#ffffff;stroke-width:0.02979593"
       d="m 5.8985584,296.89454 c -2.334636,-0.2605 -4.368427,-1.77948 -5.282763,-3.94554 -0.115352,-0.27327 -0.17116,-0.4321 -0.287917,-0.81939 -0.09506,-0.31532 -0.197581,-0.99053 -0.228474,-1.50469 -0.03718,-0.61856 0.10079,-1.58069 0.320691,-2.23669 0.03057,-0.0912 0.05561,-0.19215 0.05561,-0.22428 0,-0.0321 0.01914,-0.0858 0.04254,-0.11913 0.02341,-0.0334 0.10311,-0.19737 0.177179,-0.36442 0.154667,-0.34884 0.421391,-0.81639 0.589439,-1.03325 0.0635,-0.082 0.194255,-0.25087 0.290574,-0.37542 0.575561,-0.74423 1.501068,-1.44825 2.416852,-1.83849 0.807174,-0.34395 1.402343,-0.48168 2.414321,-0.55867 0.457337,-0.0348 1.403497,0.0876 2.069328,0.26752 0.41507,0.11221 1.090356,0.40792 1.519593,0.66543 0.7745736,0.46468 1.5672186,1.22698 2.0721116,1.99277 0.251271,0.38111 0.571427,1.00597 0.560027,1.09299 -0.0049,0.0364 0.0258,0.11277 0.06796,0.16979 0.09885,0.13375 0.235797,0.60131 0.357639,1.22102 0.07381,0.37548 0.107982,1.38561 0.06097,1.80266 -0.116828,1.03637 -0.41981,1.91726 -0.959616,2.78998 -0.5838,0.94384 -1.537632,1.82391 -2.5219686,2.32693 -0.282558,0.14439 -0.863849,0.38088 -1.08223,0.44027 -0.07375,0.02 -0.167599,0.0474 -0.208566,0.0608 -0.04096,0.0134 -0.181761,0.0466 -0.312862,0.0738 -0.1311,0.0272 -0.292001,0.0626 -0.357546,0.0786 -0.118464,0.029 -1.573541,0.0596 -1.772859,0.0374 z m 0.727254,-0.29404 c 0.506166,-0.003 0.890031,-0.0173 0.97111,-0.0375 0.07375,-0.0185 0.214531,-0.0491 0.312862,-0.0682 0.09832,-0.0191 0.371768,-0.0958 0.607657,-0.17042 0.535093,-0.16928 1.360907,-0.58058 1.7278796,-0.86057 0.144383,-0.11018 0.279563,-0.19062 0.320304,-0.19062 0.04418,0 0.07048,-0.0174 0.07048,-0.0468 0,-0.0257 0.184364,-0.23745 0.409695,-0.4705 0.495017,-0.51196 0.84423,-0.99776 1.138184,-1.58334 0.20213,-0.40266 0.444133,-1.06087 0.511126,-1.3902 0.01783,-0.0876 0.05102,-0.24634 0.07374,-0.35286 0.06065,-0.28404 0.08782,-1.29104 0.04462,-1.65368 -0.04424,-0.37118 -0.0736,-0.55047 -0.124522,-0.7598 -0.02193,-0.0901 -0.03876,-0.24529 -0.0374,-0.3448 0.0022,-0.15528 -0.0062,-0.18484 -0.05899,-0.20856 -0.04151,-0.0187 -0.106593,-0.13899 -0.200352,-0.3703 -1.087387,-2.68266 -3.8941176,-4.288 -6.7171376,-3.84195 -0.114719,0.0181 -0.315836,0.0608 -0.446937,0.095 -0.131101,0.0341 -0.298706,0.0679 -0.372453,0.0751 -0.07374,0.007 -0.154191,0.0309 -0.178776,0.0526 -0.0246,0.0217 -0.111733,0.0619 -0.19367,0.0893 -0.275653,0.0923 -0.921089,0.42252 -1.251432,0.64034 -0.526683,0.34727 -0.990784,0.76874 -1.492193,1.35513 -0.3365,0.39354 -0.807311,1.26197 -0.993452,1.83246 -0.167086,0.5121 -0.215494,0.70402 -0.270595,1.07265 -0.01838,0.12291 -0.04505,0.29722 -0.05933,0.38734 -0.08759,0.5534 0.01367,1.5274 0.238574,2.2943 0.385345,1.3141 1.235684,2.50935 2.353527,3.30816 0.63344,0.45266 1.470431,0.8473 2.085717,0.98341 0.09014,0.0199 0.202752,0.048 0.250264,0.0623 0.04752,0.0143 0.123122,0.026 0.168026,0.026 0.0449,0 0.113225,0.0256 0.151836,0.0569 0.03861,0.0312 0.08243,0.0492 0.0974,0.04 0.01493,-0.009 0.403866,-0.0187 0.864227,-0.0209 z m -0.593173,-0.73473 c -0.825077,-0.10053 -1.554736,-0.34069 -2.198445,-0.72361 -0.431041,-0.25641 -0.725678,-0.48492 -1.079791,-0.83745 -0.690373,-0.68729 -1.129819,-1.43391 -1.411737,-2.39857 -0.179514,-0.61426 -0.241719,-1.26561 -0.185868,-1.94632 0.0204,-0.24874 0.04921,-0.50589 0.06401,-0.57144 0.14675,-0.65039 0.279606,-1.03118 0.523495,-1.5004 0.296852,-0.57113 0.531833,-0.88734 1.022656,-1.37616 0.330371,-0.32902 0.517518,-0.48788 0.777719,-0.66015 0.529197,-0.3504 1.118127,-0.6254 1.34921,-0.63002 0.08051,-0.002 0.138766,-0.0203 0.162076,-0.0521 0.02002,-0.0273 0.06694,-0.0566 0.104286,-0.0652 0.483562,-0.11055 0.679311,-0.14257 1.046153,-0.17114 1.631544,-0.1271 3.189829,0.4545 4.3284826,1.61552 0.359461,0.36652 0.587793,0.65774 0.804757,1.02639 0.196416,0.33374 0.398918,0.7683 0.398918,0.85606 0,0.0357 0.02117,0.0951 0.04703,0.13206 0.04954,0.0708 0.0695,0.1294 0.159141,0.46752 0.121542,0.45845 0.136476,0.61051 0.136055,1.38551 -3.56e-4,0.86757 -0.02051,1.00809 -0.244026,1.71327 -0.264946,0.83578 -0.697366,1.5308 -1.355591,2.17884 -0.6064496,0.59705 -1.1059886,0.92048 -1.9021346,1.23153 -0.748687,0.29252 -1.758807,0.42175 -2.54641,0.32579 z m -0.463866,-1.98255 c 0.32768,-0.46963 0.455499,-0.76179 0.615428,-1.40665 0.0869,-0.35041 0.159009,-0.58286 0.183741,-0.59235 0.02236,-0.009 0.07677,0.018 0.120864,0.0591 0.242084,0.2254 0.521471,0.32791 0.885448,0.32488 0.67791,-0.006 1.277629,-0.37981 1.660586,-1.03612 0.207275,-0.35522 0.286047,-0.59166 0.366054,-1.09871 0.09477,-0.60067 0.03445,-1.05172 -0.203202,-1.51959 -0.446914,-0.87984 -1.512791,-1.39764 -2.606946,-1.26646 -1.313641,0.15752 -2.278267,1.03476 -2.414813,2.19612 -0.05173,0.43991 0.03499,0.92653 0.222673,1.24972 0.09009,0.15513 0.321031,0.37295 0.483081,0.45562 0.164755,0.084 0.227413,0.0497 0.283641,-0.15521 0.08406,-0.30641 0.08422,-0.30344 -0.02499,-0.4622 -0.187787,-0.273 -0.205613,-0.33973 -0.204684,-0.76617 5.48e-4,-0.3383 0.01055,-0.41501 0.07753,-0.6059 0.108071,-0.30804 0.243113,-0.51731 0.475902,-0.7375 0.378035,-0.35757 0.795697,-0.51614 1.362935,-0.51743 0.413506,-9.8e-4 0.599172,0.0495 0.758804,0.20619 0.108649,0.10662 0.134858,0.11871 0.220387,0.1016 0.08874,-0.0177 0.110618,-0.006 0.254716,0.14335 0.190888,0.19707 0.334997,0.47855 0.378544,0.73938 0.03582,0.21446 0.01514,0.7873 -0.03637,1.0084 -0.213148,0.91486 -0.610426,1.38335 -1.173841,1.38428 -0.257313,3.5e-4 -0.423338,-0.0757 -0.551622,-0.25275 -0.145274,-0.20054 -0.126929,-0.44596 0.08089,-1.08227 0.13261,-0.40603 0.167474,-0.57555 0.166058,-0.80746 -0.0017,-0.27431 -0.0857,-0.43389 -0.282312,-0.53619 -0.116386,-0.0605 -0.362621,-0.0527 -0.497123,0.016 -0.401312,0.20474 -0.596328,0.85972 -0.417848,1.40341 0.05074,0.15461 0.05654,0.20946 0.03117,0.29543 -0.0438,0.14828 -0.239503,0.96691 -0.329752,1.37935 -0.04806,0.21955 -0.09431,0.42094 -0.121521,0.52888 -0.112411,0.44602 -0.135584,0.7493 -0.09097,1.19052 0.03209,0.31743 0.06183,0.41846 0.123166,0.41846 0.01356,0 0.105532,-0.11592 0.204394,-0.25761 z"
       id="path422561" />
  </g>
</svg>
