<?xml version="1.0" encoding="UTF-8" standalone="no"?>
<svg
   xmlns:dc="http://purl.org/dc/elements/1.1/"
   xmlns:cc="http://creativecommons.org/ns#"
   xmlns:rdf="http://www.w3.org/1999/02/22-rdf-syntax-ns#"
   xmlns:svg="http://www.w3.org/2000/svg"
   xmlns="http://www.w3.org/2000/svg"
   width="50"
   height="50"
   viewBox="0 0 50 50"
   version="1.1"
   id="svg8">
  <defs
     id="defs2" />
  <metadata
     id="metadata5">
    <rdf:RDF>
      <cc:Work
         rdf:about="">
        <dc:format>image/svg+xml</dc:format>
        <dc:type
           rdf:resource="http://purl.org/dc/dcmitype/StillImage" />
        <dc:title></dc:title>
      </cc:Work>
    </rdf:RDF>
  </metadata>
  <g
     id="layer1"
     transform="matrix(3.8337214,0,0,3.8337214,-0.35846884,-1088.2567)">
    <path
       style="fill:#ffffff;stroke-width:0.02979593"
       d="m 5.8663543,296.8913 c -0.427106,-0.0476 -1.235989,-0.24185 -1.53449,-0.36852 -0.03278,-0.0139 -0.106521,-0.0425 -0.163878,-0.0634 -0.21054,-0.0769 -0.796989,-0.37827 -1.057755,-0.54356 -1.50043,-0.95113 -2.60739803,-2.58246 -2.90500803,-4.2811 -0.01579,-0.0901 -0.05095,-0.36859 -0.07813,-0.6188 -0.04305,-0.49833 -0.04118,-0.82179 -0.01434,-1.13157 0.01969,-0.2254 0.04751,-0.47016 0.06183,-0.54391 0.01432,-0.0738 0.04168,-0.22124 0.06082,-0.32776 0.01913,-0.10651 0.04541,-0.22719 0.05839,-0.26816 0.01298,-0.041 0.0401,-0.13483 0.06025,-0.20857 0.02016,-0.0737 0.09611,-0.29066 0.168765,-0.48205 0.55371703,-1.45847 1.63130503,-2.67698 3.02177103,-3.41694 0.284131,-0.15121 0.885177,-0.40881 1.062886,-0.45555 0.05326,-0.0139 0.147117,-0.0398 0.208572,-0.0573 0.361098,-0.10271 0.889792,-0.19304 1.38551,-0.23676 0.770161,-0.0679 1.895945,0.0923 2.659288,0.37834 2.8362357,1.06298 4.5706017,3.87466 4.2330397,6.86244 -0.04921,0.43568 -0.103137,0.70689 -0.222109,1.11734 -0.163351,0.52312 -0.25553,0.74146 -0.386111,1.01306 -0.613356,1.27346 -1.683716,2.35114 -2.9693107,2.98963 -0.327929,0.16286 -0.584411,0.26983 -0.789591,0.3293 -0.07375,0.0214 -0.234644,0.0698 -0.357552,0.10749 -0.122908,0.0377 -0.303917,0.0844 -0.402245,0.10379 -0.09833,0.0193 -0.232408,0.0484 -0.297959,0.0648 -0.117672,0.0292 -1.600539,0.0602 -1.802654,0.0377 z m 1.698368,-0.33421 c 0.05736,-0.0154 0.198144,-0.0442 0.312858,-0.064 0.114714,-0.0197 0.242092,-0.0469 0.283061,-0.0604 0.04097,-0.0135 0.154939,-0.0482 0.253265,-0.0771 0.510439,-0.15034 1.239672,-0.50204 1.6739127,-0.8073 0.44078,-0.31912 0.446364,-0.3281 0.657707,-0.5156 1.028961,-0.90719 1.7585,-2.21676 2.000814,-3.59157 0.04976,-0.28236 0.09229,-0.7685 0.09197,-1.05148 -3.01e-4,-0.26091 -0.06809,-0.93135 -0.116632,-1.15343 -0.01433,-0.0655 -0.04085,-0.19155 -0.05891,-0.27999 -0.05036,-0.24654 -0.252436,-0.82271 -0.400033,-1.14071 -0.502223,-1.08208 -1.297625,-1.99341 -2.3202647,-2.65843 -0.431851,-0.28083 -1.189788,-0.62421 -1.617956,-0.73301 -0.04916,-0.0125 -0.18995,-0.0494 -0.312857,-0.082 -1.266873,-0.33662 -2.776877,-0.16891 -4.067145,0.45176 -0.97989,0.47134 -1.829213,1.19026 -2.432261,2.0588 -0.52527803,0.75653 -0.89716903,1.6748 -1.04983403,2.59225 -0.121654,0.73108 -0.08744,1.64116 0.08737,2.32407 0.148061,0.57842 0.146004,0.5714 0.23565,0.8045 0.69371003,1.80378 2.13849303,3.17358 3.96974003,3.76373 0.35321,0.11382 0.862757,0.22375 1.185659,0.2558 0.216796,0.0215 1.517621,-0.007 1.623877,-0.0358 z m -1.53449,-0.69455 c -0.514666,-0.0627 -0.739291,-0.1114 -1.172509,-0.25417 -1.071497,-0.35311 -2.051845,-1.07921 -2.733834,-2.02479 -0.272799,-0.37824 -0.655338,-1.15918 -0.757588,-1.54659 -0.01297,-0.0491 -0.05017,-0.18995 -0.08267,-0.31286 -0.123893,-0.46867 -0.139958,-0.62367 -0.138976,-1.34081 0.0011,-0.79059 0.02553,-0.95856 0.2471,-1.69837 0.48659,-1.62464 1.993086,-3.09206 3.640311,-3.54588 0.07375,-0.0202 0.194418,-0.0537 0.268163,-0.0741 0.454059,-0.12574 1.162484,-0.18143 1.734877,-0.13639 0.485463,0.0382 0.635418,0.0668 1.259615,0.24009 0.325458,0.0903 0.945015,0.38288 1.310649,0.61883 0.9351567,0.6035 1.6995447,1.53076 2.0937427,2.53987 0.148625,0.38048 0.199943,0.53546 0.241718,0.73001 0.01761,0.082 0.04577,0.2119 0.06263,0.28881 0.08771,0.47795 0.08933,0.76412 0.08999,1.12098 -3.5e-4,0.49035 -0.06709,0.97242 -0.200839,1.45062 -0.403889,1.44406 -1.441117,2.7013 -2.7899247,3.38169 -0.346835,0.17497 -0.784359,0.34419 -1.091031,0.42199 -0.574813,0.14583 -1.437889,0.20727 -1.98143,0.14105 z m 0.476735,-2.75318 c 0.69996,-0.12882 1.209775,-0.36888 1.719901,-0.80984 0.702737,-0.60744 1.169068,-1.57426 1.232609,-2.5555 l 0.02114,-0.32642 0.263687,-0.25871 c 0.145027,-0.14229 0.2636877,-0.27362 0.2636877,-0.29184 0,-0.0442 -0.07842,-0.0398 -0.2234707,0.0124 -0.120946,0.0436 -0.283062,0.0585 -0.283062,0.026 0,-0.01 0.05499,-0.0802 0.122188,-0.15643 0.141671,-0.16075 0.280612,-0.38639 0.254202,-0.4128 -0.01,-0.01 -0.07532,0.006 -0.145149,0.0341 -0.519014,0.21371 -0.577058,0.22198 -0.725634,0.10346 -0.301381,-0.24039 -0.664589,-0.34049 -1.0036,-0.27658 -0.616938,0.11631 -1.081526,0.67341 -1.063808,1.27564 0.0024,0.0828 0.0032,0.16738 0.0019,0.18787 -0.0035,0.0509 -0.232526,0.0482 -0.494173,-0.006 -0.704861,-0.14572 -1.262766,-0.43849 -1.775911,-0.93196 -0.140969,-0.13556 -0.272176,-0.24648 -0.291569,-0.24648 -0.07976,0 -0.158684,0.274 -0.158779,0.55123 -1.2e-4,0.3796 0.06259,0.5353 0.368918,0.91573 0.03607,0.0448 0.05608,0.091 0.04447,0.10257 -0.01162,0.0116 -0.09117,0.005 -0.17678,-0.0148 -0.261025,-0.0604 -0.246125,-0.0665 -0.235573,0.0967 0.02162,0.33445 0.334558,0.77247 0.668376,0.93553 0.196458,0.096 0.187652,0.15433 -0.02328,0.15433 -0.203498,0 -0.225141,0.0384 -0.121426,0.21537 0.172901,0.29502 0.535722,0.56161 0.827965,0.60834 0.246476,0.0394 0.201686,0.11501 -0.182601,0.30816 -0.358292,0.18009 -0.708861,0.26848 -1.06502,0.26852 -0.117844,10e-6 -0.222291,0.013 -0.232103,0.0289 -0.0098,0.0158 0.08661,0.0811 0.214261,0.14495 0.333752,0.16691 0.551144,0.23708 1.021696,0.32972 0.219285,0.0432 0.915299,0.036 1.17694,-0.0122 z"
       id="path422561" />
  </g>
</svg>
