<?xml version="1.0" encoding="UTF-8" standalone="no"?>
<svg
   xmlns:dc="http://purl.org/dc/elements/1.1/"
   xmlns:cc="http://creativecommons.org/ns#"
   xmlns:rdf="http://www.w3.org/1999/02/22-rdf-syntax-ns#"
   xmlns:svg="http://www.w3.org/2000/svg"
   xmlns="http://www.w3.org/2000/svg"
   id="svg8"
   version="1.1"
   viewBox="0 0 50 50"
   height="50"
   width="50">
  <defs
     id="defs2" />
  <metadata
     id="metadata5">
    <rdf:RDF>
      <cc:Work
         rdf:about="">
        <dc:format>image/svg+xml</dc:format>
        <dc:type
           rdf:resource="http://purl.org/dc/dcmitype/StillImage" />
        <dc:title></dc:title>
      </cc:Work>
    </rdf:RDF>
  </metadata>
  <g
     transform="translate(0,-283.77081)"
     id="layer1">
    <path
       id="path422561"
       d="m 22.977405,333.61429 c -1.63927,-0.14408 -1.861999,-0.17397 -3.082792,-0.41576 -3.030721,-0.59982 -7.161524,-2.38613 -8.965925,-3.87718 -0.294563,-0.24333 -0.578347,-0.44263 -0.630584,-0.44263 -0.181022,0 -1.8756216,-1.43204 -2.8676663,-2.42341 -2.6604994,-2.65877 -4.85048,-6.13823 -5.9484669,-9.45096 -0.58507522,-1.7653 -0.79644998,-2.59868 -1.04243885,-4.11039 -0.23670019,-1.45426 -0.41170965,-3.26835 -0.41154104,-4.2652 0,-1.00945 0.29084579,-3.60748 0.53197956,-4.75477 0.0989029,-0.47095 0.22305841,-1.07119 0.27574786,-1.33387 0.19991337,-0.99627 1.06704387,-3.3466 1.76172077,-4.77458 0.7317895,-1.50431 2.070546,-3.66585 2.5854695,-4.17454 0.1550411,-0.15328 0.4133843,-0.4839 0.5742193,-0.73508 0.4222054,-0.65937 2.3953622,-2.62122 3.6443782,-3.62351 2.6679179,-2.1408 5.9423699,-3.81563 9.1229889,-4.66625 3.982269,-1.06506 9.145625,-1.05973 13.187439,0.0115 2.241608,0.59526 5.526514,2.12421 7.519006,3.49973 2.526695,1.74435 5.29104,4.56889 6.799625,6.94769 0.371892,0.58641 0.433981,0.94677 0.229113,1.32958 -0.109172,0.20424 -0.09618,0.22302 0.109978,0.15749 0.128677,-0.041 0.335105,-0.023 0.458896,0.0464 0.216966,0.11611 0.802485,1.23086 1.427076,2.71694 0.536608,1.27673 1.000846,2.85868 1.399248,4.76803 0.291918,1.39924 0.310082,1.66422 0.31629,4.62418 0.0065,3.19007 -0.01226,3.40941 -0.515261,5.59466 -0.824757,3.59235 -2.155405,6.48176 -4.364158,9.47667 -1.035484,1.40403 -3.605404,3.97692 -4.987703,4.9935 -3.238032,2.3813 -6.903489,3.98053 -10.561356,4.60789 -0.592889,0.10155 -4.43756,0.45018 -4.738323,0.42953 -0.09427,-0.008 -0.916279,-0.0774 -1.826837,-0.15749 z m 5.537555,-1.32049 c 1.746274,-0.27552 2.761081,-0.50471 3.882029,-0.87679 5.781407,-1.91905 10.658538,-5.98499 13.590386,-11.32988 1.028966,-1.87586 2.096715,-4.72899 2.435568,-6.50809 0.06579,-0.34526 0.186271,-0.96193 0.267547,-1.37012 0.227197,-1.13958 0.18585,-6.0571 -0.06143,-7.30731 -0.339052,-1.714 -0.402092,-1.98178 -0.685668,-2.91153 -0.890927,-2.92102 -2.337032,-5.69686 -4.193395,-8.04945 -0.888685,-1.12621 -2.76407,-2.97517 -3.988553,-3.93228 -3.655815,-2.85746 -7.540067,-4.44979 -12.274024,-5.03163 -1.746045,-0.21459 -3.197197,-0.21344 -4.852515,0.004 -2.720554,0.35752 -4.694424,0.87491 -6.766326,1.77355 -5.380031,2.33343 -9.5002115,6.20908 -12.0700084,11.35367 -1.5026341,3.00821 -2.2359295,5.62111 -2.5281663,9.00841 -0.33422361,3.87407 0.5370071,8.21147 2.4125024,12.01078 0.7959059,1.61237 1.8726216,3.32568 2.8260746,4.49692 0.280078,0.34411 0.5536033,0.74229 0.6078064,0.88491 0.054261,0.14255 0.1653491,0.25943 0.2468166,0.25943 0.081506,0 0.5580675,0.41331 1.0589737,0.91848 1.0136877,1.02233 2.747895,2.40877 4.050596,3.23827 1.997835,1.27214 5.213953,2.61735 7.250219,3.03258 3.493621,0.7124 5.838359,0.80203 8.79162,0.33606 z m -5.137958,-2.62137 c -2.110632,-0.14485 -4.488681,-0.68741 -6.222617,-1.41997 -1.650666,-0.69738 -3.466004,-1.69706 -4.053298,-2.232 -0.188379,-0.17167 -0.486697,-0.38523 -0.662895,-0.47463 -0.445948,-0.22647 -1.819338,-1.47411 -2.705298,-2.45789 -0.4081919,-0.45329 -0.9281621,-1.03061 -1.1555008,-1.28298 -0.9734022,-1.08065 -2.301916,-3.38328 -3.0753972,-5.33037 -1.1780289,-2.96556 -1.6475016,-6.17862 -1.3797012,-9.44261 0.078172,-0.95193 0.1938206,-1.962 0.2572778,-2.24457 0.4296624,-1.91532 0.5619187,-2.35738 1.1597735,-3.87698 1.5780472,-4.0108 4.2832196,-7.3425 7.9418219,-9.7812 1.105739,-0.73704 3.608319,-1.98139 4.69222,-2.33305 5.434888,-1.76346 11.010349,-1.43729 15.990717,0.93538 3.984045,1.89805 7.295166,5.02907 9.380039,8.86969 1.101302,2.02887 1.839958,4.14262 2.281442,6.5287 0.214054,1.15699 0.218882,6.15501 0.0065,7.19317 -0.457763,2.24219 -1.097482,4.2265 -1.830152,5.67678 -3.098021,6.13248 -8.434366,10.14963 -15.201953,11.44384 -0.593497,0.11381 -3.628077,0.36442 -3.996179,0.3307 -0.0943,-0.008 -0.736441,-0.0548 -1.427202,-0.10193 z m -8.163631,-10.44282 c 0.847764,-0.2736 1.823971,-0.58472 2.169361,-0.69117 0.345413,-0.10653 0.913976,-0.28969 1.263554,-0.40711 0.799826,-0.269 1.037247,-0.26785 1.576538,0.008 0.804286,0.41032 2.510374,0.90687 3.79174,1.1036 1.104524,0.16938 1.418465,0.17666 2.362783,0.0533 2.221698,-0.29085 3.916827,-0.89519 5.499668,-1.96132 1.308104,-0.88104 2.016469,-1.52385 2.784796,-2.52698 1.231918,-1.60839 1.851209,-2.91769 2.362948,-4.99596 0.20114,-0.81644 0.209876,-3.74175 0.01456,-4.50999 -0.08024,-0.31422 -0.199262,-0.77643 -0.264673,-1.02761 -0.906665,-3.48471 -4.118085,-6.81296 -7.66822,-7.9473 -2.177489,-0.69569 -4.664224,-0.76589 -6.870257,-0.19389 -3.500155,0.9076 -6.558032,3.64657 -7.931617,7.10434 -0.58834,1.48105 -0.802903,2.62703 -0.802903,4.28823 0,1.96894 0.307093,3.29234 1.21201,5.223 0.212559,0.45347 0.386461,0.87763 0.386461,0.94251 0,0.0648 -0.438821,1.42943 -0.975134,3.0323 -0.53634,1.60291 -0.942179,2.96774 -0.901886,3.03296 0.0402,0.0652 0.157991,0.0855 0.261531,0.0452 0.103501,-0.0402 0.881876,-0.29736 1.729639,-0.57119 z m 8.392001,-1.94778 c -1.373164,-0.25866 -1.455616,-0.28548 -2.669512,-0.86848 l -1.185214,-0.56939 -1.588942,0.52314 c -1.68884,0.55598 -2.034924,0.61794 -2.034924,0.36442 0,-0.0874 0.231221,-0.82678 0.513789,-1.64353 0.282607,-0.81674 0.513816,-1.5501 0.513816,-1.62965 0,-0.0793 -0.225702,-0.5346 -0.501553,-1.01107 -0.91167,-1.57474 -1.242127,-2.91049 -1.227059,-4.95967 0.01878,-2.54879 0.54369,-4.12805 2.017113,-6.06844 0.928246,-1.2224 1.934247,-2.03607 3.432505,-2.77637 4.017382,-1.985 8.767307,-1.14001 11.796836,2.09857 1.846288,1.97369 2.634626,4.0075 2.630434,6.78625 -0.0021,1.9722 -0.192556,2.80488 -1.013167,4.44937 -1.16139,2.32749 -3.254396,4.15534 -5.644562,4.92947 -1.66642,0.53969 -3.45785,0.67312 -5.03956,0.37553 z m 5.630357,-4.32364 c 1.103328,-0.29391 1.778332,-0.87331 2.031571,-1.74446 0.09637,-0.33109 0.142242,-0.70512 0.102275,-0.83123 -0.04755,-0.14983 -0.475156,-0.42121 -1.235313,-0.78375 -1.729222,-0.82479 -1.557006,-0.82736 -2.372857,0.0345 -0.389143,0.41148 -0.789805,0.74808 -0.890383,0.74804 -0.318206,-1.1e-4 -1.52696,-0.63338 -2.243996,-1.17553 -1.028694,-0.77777 -2.158129,-2.29408 -2.015879,-2.7064 0.03257,-0.0947 0.230952,-0.37323 0.441043,-0.62001 0.496986,-0.58384 0.487517,-0.85932 -0.07583,-2.20786 -0.576381,-1.37939 -0.692984,-1.51087 -1.340459,-1.51087 -0.887991,0 -1.596061,0.6647 -1.929361,1.81118 -0.460004,1.58241 0.398424,3.47494 2.642439,5.82565 1.525366,1.59793 2.891782,2.40839 5.138544,3.04791 1.109177,0.31537 1.007848,0.30924 1.748351,0.11227 z"
       style="fill:#ffffff;stroke-width:0.11417682" />
  </g>
</svg>
