<?xml version="1.0" encoding="UTF-8" standalone="no"?>
<svg
   xmlns:dc="http://purl.org/dc/elements/1.1/"
   xmlns:cc="http://creativecommons.org/ns#"
   xmlns:rdf="http://www.w3.org/1999/02/22-rdf-syntax-ns#"
   xmlns:svg="http://www.w3.org/2000/svg"
   xmlns="http://www.w3.org/2000/svg"
   width="137"
   height="57"
   viewBox="0 0 137 57"
   version="1.1"
   id="svg4743">
  <defs
     id="defs4737" />
  <metadata
     id="metadata4740">
    <rdf:RDF>
      <cc:Work
         rdf:about="">
        <dc:format>image/svg+xml</dc:format>
        <dc:type
           rdf:resource="http://purl.org/dc/dcmitype/StillImage" />
        <dc:title></dc:title>
      </cc:Work>
    </rdf:RDF>
  </metadata>
  <g
     transform="matrix(3.8000006,0,0,3.8000006,-208.7078,-458.06971)"
     id="layer1">
    <g
       transform="translate(433.11725,350.76383)"
       id="g4704">
      <g
         aria-label="MC"
         style="font-style:normal;font-weight:normal;font-size:10.40116024px;line-height:1.25;font-family:sans-serif;letter-spacing:0px;word-spacing:0px;fill:#ffffff;fill-opacity:1;stroke:none;stroke-width:0.26002899"
         id="text4555">
        <path
           d="m -367.62332,-226.86946 h -0.0936 l -2.79791,6.2615 -2.50668,-5.419 c -0.33284,-0.71768 -1.32095,-2.12184 -3.08915,-1.71619 v 0.10401 c 1.25854,-0.16642 1.99703,0.9257 2.43388,1.789 l -0.66568,5.66863 c -0.0624,0.39524 -0.38484,0.62407 -0.74888,0.63447 h -0.16642 v 0.10401 h 2.01782 v -0.10401 h -0.16641 c -0.18722,0.0104 -0.42645,-0.19762 -0.40565,-0.44725 l 0.46805,-5.15898 2.6939,5.84546 h 0.0936 c 0.0728,-0.42645 0.35364,-1.06092 0.35364,-1.06092 l 2.16344,-4.88855 0.63448,4.63892 c 0.24962,1.7682 1.42495,3.26596 3.54679,2.95393 v -0.10401 c -1.44576,0.0624 -2.49628,-1.00891 -2.79791,-2.94353 z"
           style="font-style:normal;font-variant:normal;font-weight:normal;font-stretch:normal;font-family:'Cinzel Decorative';-inkscape-font-specification:'Cinzel Decorative';fill:#ffffff;stroke-width:0.26002899"
           id="path5347" />
        <path
           d="m -357.71085,-223.34346 c 0,2.34026 -1.45616,3.72361 -3.51559,3.72361 -2.04903,0 -3.41158,-1.53937 -3.41158,-3.50519 0,-1.96582 1.37295,-3.44278 3.22436,-3.44278 1.21693,0 2.45467,0.64487 2.7667,1.8618 h 0.0832 l -0.20802,-1.46656 c -0.64487,-0.42645 -1.71619,-0.70728 -2.6627,-0.70728 -2.28825,0 -3.99404,1.62258 -3.99404,3.77562 0,2.15304 1.71619,3.79643 4.13966,3.79643 2.28826,0 3.76522,-1.35215 3.68201,-4.03565 z"
           style="font-style:normal;font-variant:normal;font-weight:normal;font-stretch:normal;font-family:'Cinzel Decorative';-inkscape-font-specification:'Cinzel Decorative';fill:#ffffff;stroke-width:0.26002899"
           id="path5349" />
      </g>
      <path
         style="opacity:1;fill:none;fill-opacity:1;stroke:#ffffff;stroke-width:0.66569775;stroke-linejoin:round;stroke-miterlimit:4;stroke-dasharray:none;stroke-dashoffset:0;stroke-opacity:1"
         d="m -377.83499,-229.88634 h 35.3343 v 14.3343 h -35.3343 z"
         id="rect4558" />
      <g
         transform="matrix(0.44755738,0,0,0.44755738,-208.37156,-125.23537)"
         id="g4693">
        <path
           id="path4687"
           d="m -326.72235,-207.62705 c -0.28158,-0.74737 -0.15296,-1.44561 0.38135,-2.07015 0.21463,-0.25083 1.00271,-0.88561 2.41421,-1.94439 1.68493,-1.26391 2.82082,-2.19423 5.79664,-4.74755 4.70367,-4.03586 4.7266,-4.0623 4.86491,-5.61268 0.0435,-0.48725 0.12884,-0.96922 0.18971,-1.07103 0.10819,-0.18088 4.40268,-4.25233 5.65793,-5.36399 0.50503,-0.44719 0.6503,-0.5431 0.71886,-0.47454 0.0746,0.0746 -0.2265,0.40601 -2.27318,2.5024 -1.29751,1.32905 -2.35913,2.45629 -2.35906,2.50506 0,0.0488 0.0731,0.0875 0.16247,0.086 0.12778,-0.002 0.62843,-0.44115 2.34724,-2.05847 2.55798,-2.40698 2.70881,-2.53411 2.8169,-2.37459 0.0709,0.10459 -0.13109,0.32866 -2.28749,2.53729 -2.02041,2.06935 -2.36047,2.44278 -2.33236,2.56161 0.0223,0.0944 0.0881,0.1391 0.20472,0.1391 0.14609,7e-5 0.53023,-0.3533 2.56473,-2.35939 2.00396,-1.97595 2.40596,-2.34642 2.4731,-2.27928 0.0441,0.044 0.0712,0.11826 0.0602,0.16474 -0.011,0.0465 -1.03319,1.17462 -2.27164,2.50683 -1.32218,1.42231 -2.25168,2.4699 -2.25168,2.53766 0,0.0728 0.0399,0.11531 0.10751,0.11599 0.0613,-2.1e-4 1.16058,-1.01228 2.52821,-2.32765 1.80958,-1.74041 2.44309,-2.31552 2.51234,-2.2808 0.0509,0.0256 0.0453,0.11882 -0.0125,0.2073 -0.0579,0.0884 -1.35621,1.49814 -2.88532,3.13255 -2.0454,2.18625 -2.84429,3.00262 -3.02262,3.08881 -0.13332,0.0644 -0.5966,0.14768 -1.02946,0.18507 -0.43286,0.0374 -0.91752,0.12914 -1.07704,0.20392 -0.61729,0.28938 -1.51446,1.22715 -4.52318,4.72787 -2.35105,2.7355 -3.24665,3.8322 -4.63874,5.68026 -1.90763,2.5325 -2.12002,2.74907 -2.89409,2.95109 -0.44993,0.11743 -0.82718,0.0739 -1.29381,-0.14934 -0.41885,-0.20038 -0.47987,-0.26788 -0.64981,-0.71868 z m 13.7083,-14.05213 c 0.009,-0.009 0.12323,-0.3467 0.25314,-0.74972 0.1299,-0.40303 0.28344,-0.81445 0.34121,-0.91427 0.0864,-0.1493 0.0798,-0.17623 -0.0373,-0.15186 -0.31228,0.0649 -0.72766,0.95486 -0.68368,1.46469 0.0214,0.24869 0.0765,0.40132 0.12661,0.35119 z"
           style="fill:#ffffff;stroke-width:0.08104208" />
        <path
           style="fill:#ffffff;stroke-width:0.08104208"
           d="m -305.36029,-206.46878 c -0.23739,0.10091 -0.77101,0.0138 -1.18748,-0.19376 -0.948,-0.47251 -2.03933,-1.50789 -3.80363,-3.60859 -2.02963,-2.41663 -3.81991,-4.40913 -5.21118,-5.7998 -1.26653,-1.26612 -1.35122,-1.33849 -1.65819,-1.41069 -0.302,-0.0713 -0.32647,-0.0915 -0.37143,-0.30765 -0.0265,-0.1272 -0.0869,-0.26999 -0.13417,-0.31728 -0.112,-0.11201 -0.79628,-0.15559 -0.97653,-0.0622 -0.26972,0.13975 -0.55749,-0.0965 -2.57449,-2.1138 -2.84864,-2.84907 -3.73797,-3.9451 -4.70261,-5.79583 -0.73022,-1.40096 -0.96064,-2.65618 -0.54773,-2.98368 l 0.17283,-0.13719 4.98832,4.95919 c 4.47228,4.44598 5.01248,4.96412 5.22138,5.00763 0.21646,0.0451 0.23658,0.0673 0.28371,0.31298 0.10239,0.53392 2.42601,2.82822 5.89668,5.82229 0.89682,0.77364 2.03186,1.75315 2.52236,2.17667 1.37417,1.18656 2.31137,2.33457 2.57871,3.15879 0.18174,0.56031 -0.0222,1.09124 -0.49665,1.29287 z m -15.70714,-14.43642 c -2.35029,-2.40404 -2.55958,-2.65929 -3.54225,-4.31856 -0.58404,-0.98624 -0.82005,-1.58392 -0.84874,-2.14938 -0.0203,-0.4008 -0.0504,-0.46417 -0.37332,-0.78711 -0.30445,-0.30444 -0.3655,-0.33693 -0.45802,-0.24441 -0.27631,0.27632 -0.0293,1.23591 0.62025,2.40938 0.61729,1.11521 1.3468,2.09717 2.54356,3.42376 1.11677,1.23797 3.95301,4.01693 4.14616,4.06258 0.27415,0.0647 -0.0867,-0.34952 -2.08767,-2.39623 z"
           id="path4689" />
      </g>
    </g>
  </g>
</svg>
