<?xml version="1.0" encoding="UTF-8" standalone="no"?>
<svg
   xmlns:dc="http://purl.org/dc/elements/1.1/"
   xmlns:cc="http://creativecommons.org/ns#"
   xmlns:rdf="http://www.w3.org/1999/02/22-rdf-syntax-ns#"
   xmlns:svg="http://www.w3.org/2000/svg"
   xmlns="http://www.w3.org/2000/svg"
   id="svg4743"
   version="1.1"
   viewBox="0 0 446 118"
   height="118"
   width="446">
  <defs
     id="defs4737" />
  <metadata
     id="metadata4740">
    <rdf:RDF>
      <cc:Work
         rdf:about="">
        <dc:format>image/svg+xml</dc:format>
        <dc:type
           rdf:resource="http://purl.org/dc/dcmitype/StillImage" />
        <dc:title></dc:title>
      </cc:Work>
    </rdf:RDF>
  </metadata>
  <g
     id="layer1"
     transform="matrix(3.7804991,0,0,3.7804991,-169.95816,-395.06495)">
    <g
       style="fill:#ffffff"
       id="g4716"
       transform="translate(335.10907,283.04829)">
      <g
         aria-label="Ma CuiSine"
         style="font-style:normal;font-weight:normal;font-size:19.22616386px;line-height:1.25;font-family:sans-serif;letter-spacing:0px;word-spacing:0px;fill:#ffffff;fill-opacity:1;stroke:none;stroke-width:0.48065409"
         id="text5023">
        <path
           d="m -274.46398,-168.75206 h -0.17304 l -5.17184,11.57415 -4.6335,-10.01683 c -0.61524,-1.32661 -2.44173,-3.92214 -5.71017,-3.17232 v 0.19226 c 2.32636,-0.30762 3.69142,1.71113 4.49892,3.3069 l -1.23048,10.47826 c -0.11535,0.73059 -0.71136,1.15357 -1.38428,1.1728 h -0.30762 v 0.19226 h 3.72988 v -0.19226 h -0.30762 c -0.34607,0.0192 -0.78827,-0.3653 -0.74982,-0.82673 l 0.86518,-9.53618 4.97957,10.80511 h 0.17304 c 0.13458,-0.78827 0.65369,-1.96107 0.65369,-1.96107 l 3.99904,-9.0363 1.1728,8.57487 c 0.46142,3.26845 2.63398,6.03702 6.55612,5.46023 v -0.19226 c -2.67244,0.11536 -4.61428,-1.86494 -5.17184,-5.441 z"
           style="font-style:normal;font-variant:normal;font-weight:normal;font-stretch:normal;font-family:'Cinzel Decorative';-inkscape-font-specification:'Cinzel Decorative';fill:#ffffff;stroke-width:0.48065409"
           id="path4668" />
        <path
           d="m -264.05031,-168.77129 h -0.17304 c 0,0.42298 -0.71137,1.9803 -0.71137,1.9803 l -4.36434,10.3629 c -0.38452,0.84595 -1.09589,1.19202 -1.6919,1.19202 h -0.17303 v 0.19226 h 3.88368 v -0.17303 h -0.17303 c -0.49988,0 -0.99976,-0.44221 -0.7306,-1.21125 l 1.28816,-3.28768 h 5.17183 l 1.23048,3.28768 c 0.28839,0.76904 -0.23072,1.21125 -0.7306,1.21125 h -0.17303 v 0.17303 h 4.32589 v -0.19226 h -0.15381 c -0.59602,0 -1.30738,-0.34607 -1.69191,-1.19202 z m -2.61476,8.47874 2.40327,-6.15237 2.32637,6.15237 z"
           style="font-style:normal;font-variant:normal;font-weight:normal;font-stretch:normal;font-family:'Cinzel Decorative';-inkscape-font-specification:'Cinzel Decorative';fill:#ffffff;stroke-width:0.48065409"
           id="path4670" />
        <path
           d="m -237.32805,-162.23439 c 0,4.32588 -2.69166,6.88296 -6.49844,6.88296 -3.78755,0 -6.30618,-2.84547 -6.30618,-6.47921 0,-3.63375 2.53785,-6.36386 5.96011,-6.36386 2.24946,0 4.53737,1.19202 5.11416,3.44148 h 0.15381 l -0.38453,-2.71089 c -1.19202,-0.78827 -3.17231,-1.30738 -4.92189,-1.30738 -4.22976,0 -7.38285,2.99928 -7.38285,6.9791 0,3.97981 3.17232,7.01755 7.65201,7.01755 4.22976,0 6.95987,-2.4994 6.80606,-7.45975 z"
           style="font-style:normal;font-variant:normal;font-weight:normal;font-stretch:normal;font-family:'Cinzel Decorative';-inkscape-font-specification:'Cinzel Decorative';fill:#ffffff;stroke-width:0.48065409"
           id="path4672" />
        <path
           d="m -226.09396,-168.50212 v 0.19226 h 0.30762 c 0.53833,0 0.99976,0.40375 1.01899,0.94208 v 7.57511 c 0,2.65321 -1.71113,4.42202 -4.28744,4.42202 -2.44172,0 -4.07595,-1.86494 -4.07595,-4.67196 v -7.32517 c 0.0192,-0.53833 0.46143,-0.94208 0.99976,-0.94208 h 0.32685 v -0.19226 h -3.90291 v 0.19226 h 0.30762 c 0.55756,0 0.99976,0.40375 1.01898,0.96131 v 7.59433 c 0,2.99928 2.13411,4.9988 5.32565,4.9988 3.11464,0 5.19106,-2.01874 5.19106,-5.03725 v -7.59434 c 0.0192,-0.53833 0.46143,-0.92285 0.99977,-0.92285 h 0.32684 v -0.19226 z"
           style="font-style:normal;font-variant:normal;font-weight:normal;font-stretch:normal;font-family:'Cinzel Decorative';-inkscape-font-specification:'Cinzel Decorative';fill:#ffffff;stroke-width:0.48065409"
           id="path4674" />
        <path
           d="m -211.2799,-164.19546 c -0.61524,-0.51911 -0.82673,-1.15357 -0.82673,-1.74958 0,-1.26893 0.94208,-2.24946 2.32637,-2.24946 1.17279,0 2.21101,0.69214 2.23023,1.98029 h 0.17304 l -0.0384,-2.34559 h -0.74982 c -0.55756,-0.11536 -1.21125,-0.21149 -1.69191,-0.21149 -2.17255,0 -3.34535,1.63422 -3.34535,3.21077 0,0.69214 0.23071,1.71113 1.13434,2.4225 l 3.47994,2.73011 c 3.01851,2.40327 1.615,6.47922 -1.98029,6.47922 -3.32613,0 -4.72964,-3.46071 -2.61476,-6.21005 l -0.17304,-0.13458 c -2.63398,2.80702 -1.11512,7.03677 3.13387,7.03677 4.67195,0 6.34463,-5.13338 2.51862,-8.15189 z"
           style="font-style:normal;font-variant:normal;font-weight:normal;font-stretch:normal;font-family:'Cinzel Decorative';-inkscape-font-specification:'Cinzel Decorative';fill:#ffffff;stroke-width:0.48065409"
           id="path4678" />
        <path
           d="m -187.06034,-168.50212 v 0.19226 h 0.34607 c 0.65369,0 1.1728,0.53833 1.19202,1.17279 v 9.53618 l -10.47826,-11.1704 h -0.17303 c 0,0 0.17303,1.07667 0.17303,2.38405 v 9.9976 c -0.0192,0.65369 -0.53833,1.1728 -1.19202,1.1728 h -0.34607 l -0.0192,0.19226 h 3.96059 v -0.19226 h -0.34607 c -0.65369,0 -1.17279,-0.51911 -1.19202,-1.15357 v -9.57463 l 10.49749,11.18962 h 0.17303 c 0,0 -0.19226,-1.23047 -0.19226,-2.46094 v -9.93993 c 0.0385,-0.63446 0.55756,-1.15357 1.19202,-1.15357 h 0.3653 v -0.19226 z"
           style="font-style:normal;font-variant:normal;font-weight:normal;font-stretch:normal;font-family:'Cinzel Decorative';-inkscape-font-specification:'Cinzel Decorative';fill:#ffffff;stroke-width:0.48065409"
           id="path4682" />
        <path
           d="m -172.37095,-158.13922 c -0.59601,1.46119 -1.36506,2.51863 -3.40303,2.51863 h -2.76857 v -5.76785 h 3.26845 c 0.51911,0.0192 0.92286,0.4422 0.92286,0.96131 v 0.26916 h 0.19226 v -3.03773 h -0.19226 v 0.28839 c 0,0.51911 -0.42298,0.94208 -0.94208,0.94208 h -3.24923 v -5.94088 h 3.92214 c 0.61524,0.0385 1.07667,0.53833 1.07667,1.15357 v 0.32684 l 0.19226,0.0192 v -1.55732 -0.30762 -0.57678 c -0.34607,0.15381 -1.46119,0.34607 -2.28792,0.34607 h -5.61404 v 0.19226 h 0.24994 c 0.63447,0 1.21125,0.49988 1.21125,1.11512 v 10.76665 c 0,0.65369 -0.55756,1.21125 -1.23047,1.21125 h -0.23072 v 0.19226 h 7.95964 l 1.11511,-3.11464 z"
           style="font-style:normal;font-variant:normal;font-weight:normal;font-stretch:normal;font-family:'Cinzel Decorative';-inkscape-font-specification:'Cinzel Decorative';fill:#ffffff;stroke-width:0.48065409"
           id="path4684" />
      </g>
      <path
         style="fill:#ffffff;stroke-width:0.08104208"
         d="m -218.87178,-147.59339 c -0.72758,-0.32936 -1.13036,-0.91404 -1.19416,-1.73347 -0.0256,-0.32913 0.0828,-1.33524 0.33221,-3.08199 0.29771,-2.08515 0.44307,-3.54618 0.74182,-7.45587 0.47221,-6.17978 0.46973,-6.21469 -0.52875,-7.40878 -0.3138,-0.37527 -0.59424,-0.77644 -0.62319,-0.89147 -0.0514,-0.20441 0.10631,-6.12002 0.20785,-7.79368 0.0409,-0.67332 0.0758,-0.84386 0.17276,-0.84386 0.10546,0 0.12693,0.44725 0.16208,3.37685 0.0223,1.85725 0.0687,3.40501 0.10324,3.43945 0.0345,0.0345 0.11354,0.0102 0.17567,-0.0541 0.0889,-0.0918 0.13243,-0.7563 0.20419,-3.1153 0.10678,-3.51076 0.12353,-3.70731 0.31276,-3.67094 0.12411,0.0238 0.13971,0.32509 0.17664,3.41163 0.0346,2.8919 0.0582,3.39641 0.1621,3.46056 0.0825,0.051 0.16062,0.0361 0.24312,-0.0464 0.10335,-0.10325 0.12511,-0.62475 0.1452,-3.48188 0.0198,-2.81422 0.0421,-3.36044 0.13705,-3.36044 0.0623,0 0.13395,0.0333 0.15908,0.0739 0.0251,0.0406 0.1,1.56116 0.1663,3.37889 0.0708,1.94065 0.15431,3.33866 0.20222,3.38657 0.0515,0.0515 0.10978,0.0533 0.15804,0.006 0.0432,-0.0435 0.10486,-1.53644 0.14182,-3.43361 0.0489,-2.51022 0.0902,-3.36484 0.16372,-3.38926 0.0541,-0.0179 0.11604,0.052 0.13772,0.15545 0.0216,0.10346 0.10035,2.01833 0.17481,4.25528 0.0996,2.99222 0.11196,4.13438 0.0468,4.32143 -0.0487,0.13984 -0.31743,0.52629 -0.59707,0.8588 -0.27965,0.3325 -0.55747,0.7401 -0.61739,0.90578 -0.23187,0.64111 -0.20315,1.93861 0.14474,6.54148 0.27185,3.59673 0.41405,5.0055 0.73647,7.29663 0.44185,3.13965 0.4448,3.44297 0.0403,4.13317 -0.23511,0.40118 -0.53266,0.63714 -1.02046,0.80926 -0.43786,0.15448 -0.52874,0.1499 -0.96767,-0.0487 z m -0.24312,-19.62958 c 0,-0.0132 -0.15802,-0.33229 -0.35114,-0.70913 -0.19313,-0.37684 -0.37548,-0.77633 -0.40521,-0.88776 -0.0445,-0.16665 -0.0682,-0.18103 -0.13377,-0.081 -0.17489,0.26673 0.16066,1.18972 0.55226,1.51913 0.19102,0.16068 0.33786,0.22969 0.33786,0.1588 z"
         id="path4660" />
      <path
         id="path4662"
         d="m -202.00951,-147.50184 c -0.23922,-0.0965 -0.55497,-0.5354 -0.70267,-0.97668 -0.33622,-1.00445 -0.37578,-2.50826 -0.13791,-5.24123 0.27365,-3.14398 0.41664,-5.81881 0.41622,-7.78594 -2.9e-4,-1.79085 -0.009,-1.90191 -0.17501,-2.17002 -0.16315,-0.26395 -0.16612,-0.29558 -0.0451,-0.48019 0.0712,-0.10869 0.12948,-0.25234 0.12948,-0.31922 0,-0.1584 -0.45304,-0.67307 -0.64655,-0.73448 -0.28954,-0.0919 -0.32595,-0.46245 -0.32575,-3.31512 3e-4,-4.02889 0.14646,-5.43275 0.77302,-7.42352 0.47429,-1.50697 1.19893,-2.55748 1.72248,-2.49708 l 0.21921,0.0252 0.0206,7.03395 c 0.0186,6.30616 0.0342,7.05452 0.15115,7.233 0.12117,0.18495 0.11971,0.21487 -0.0207,0.42193 -0.30514,0.44994 -0.28441,3.7153 0.0526,8.28656 0.0871,1.18119 0.19708,2.67641 0.24444,3.32272 0.13266,1.81071 -0.0164,3.28517 -0.41018,4.05702 -0.26769,0.52471 -0.78733,0.75592 -1.26538,0.56301 z m -0.89853,-21.31471 c 0.038,-3.36182 0.0705,-3.6903 0.54893,-5.55843 0.2844,-1.11036 0.54014,-1.69987 0.91969,-2.11999 0.26903,-0.29779 0.29259,-0.36385 0.29259,-0.82055 0,-0.43055 -0.0202,-0.49669 -0.15104,-0.49669 -0.39077,0 -0.89463,0.85321 -1.26511,2.14227 -0.35208,1.22506 -0.53059,2.43525 -0.62239,4.21953 -0.0857,1.66505 -0.0452,5.6356 0.0591,5.80446 0.14809,0.23961 0.18581,-0.30849 0.21818,-3.1706 z"
         style="fill:#ffffff;stroke-width:0.08104208" />
    </g>
  </g>
</svg>
